<?xml version="1.0" standalone="no"?>
<!DOCTYPE svg PUBLIC "-//W3C//DTD SVG 20010904//EN"
 "http://www.w3.org/TR/2001/REC-SVG-20010904/DTD/svg10.dtd">
<svg version="1.0" xmlns="http://www.w3.org/2000/svg"
 width="1080.000000pt" height="1080.000000pt" viewBox="0 0 1080.000000 1080.000000"
 preserveAspectRatio="xMidYMid meet">
<metadata>
Created by potrace 1.16, written by Peter Selinger 2001-2019
</metadata>
<g transform="translate(0.000000,1080.000000) scale(0.100000,-0.100000)"
fill="#000000" stroke="none">
<path d="M5511 8819 c0 -13 19 -184 42 -379 l42 -355 50 -12 c28 -7 68 -14 90
-15 l39 -3 126 217 c69 119 126 215 128 213 2 -2 16 -113 31 -249 15 -135 29
-248 32 -251 3 -3 43 -13 89 -22 71 -14 84 -14 91 -2 4 8 89 156 188 329 l180
315 -47 11 c-26 6 -61 13 -78 17 l-31 6 -128 -225 c-70 -123 -131 -226 -135
-229 -4 -2 -19 111 -34 253 -15 141 -30 260 -32 263 -7 13 -144 33 -154 23 -4
-5 -63 -103 -130 -219 -67 -115 -125 -213 -129 -217 -4 -4 -19 108 -35 250
-15 141 -31 260 -34 263 -4 4 -36 12 -71 18 -34 7 -69 15 -77 18 -10 3 -14 -2
-13 -18z"/>
<path d="M4415 8473 c-42 -21 -74 -53 -93 -88 l-15 -30 -13 32 -13 32 -68 -26
c-38 -14 -70 -27 -72 -29 -3 -3 186 -504 194 -512 5 -6 126 36 139 48 4 4 -15
69 -43 144 -55 147 -61 194 -32 242 17 28 73 64 101 64 8 0 9 7 5 18 -4 9 -16
41 -27 70 -11 28 -22 52 -26 52 -4 -1 -20 -8 -37 -17z"/>
<path d="M6750 8251 c-132 -43 -212 -148 -212 -278 0 -116 73 -218 201 -280
45 -22 71 -27 128 -28 39 0 74 3 77 6 3 3 1 31 -5 62 l-12 57 -45 0 c-54 0
-117 28 -157 70 -21 22 -29 42 -33 80 -2 27 -2 50 2 50 3 0 85 -45 182 -100
96 -55 180 -97 186 -94 5 4 21 30 34 58 50 106 22 241 -64 317 -74 65 -210
104 -282 80z m162 -143 c22 -13 46 -35 54 -50 16 -31 19 -108 4 -108 -19 0
-230 124 -227 134 5 16 70 46 100 46 16 0 47 -10 69 -22z"/>
<path d="M4948 8201 c-27 -24 -33 -36 -33 -71 0 -35 6 -47 34 -72 29 -26 39
-30 75 -25 84 12 117 108 57 168 -40 40 -89 40 -133 0z"/>
<path d="M3859 8210 c-229 -38 -336 -306 -189 -473 75 -84 160 -116 262 -97
107 21 221 102 259 185 26 56 24 60 -23 74 -24 7 -50 14 -59 17 -11 3 -21 -6
-29 -26 -31 -74 -145 -133 -213 -111 -75 25 -70 31 118 146 96 58 175 110 175
114 0 4 -14 28 -31 54 -35 53 -106 104 -158 113 -20 3 -43 7 -51 9 -8 1 -36
-1 -61 -5z m98 -145 c13 -9 23 -19 23 -24 0 -9 -181 -124 -213 -137 -23 -8
-31 47 -14 87 37 86 133 120 204 74z"/>
<path d="M7255 7879 c-126 -138 -242 -265 -257 -283 l-27 -33 55 -47 c51 -45
56 -47 73 -32 25 23 31 20 31 -12 0 -39 51 -115 101 -152 56 -40 139 -64 192
-56 100 16 192 87 236 181 72 153 -26 350 -186 374 l-48 7 60 64 c33 36 73 80
90 98 l29 32 -54 55 c-30 30 -57 55 -60 55 -3 -1 -108 -113 -235 -251z m203
-179 c71 -44 90 -122 47 -196 -62 -105 -192 -114 -256 -18 -36 55 -21 131 38
185 58 54 114 64 171 29z"/>
<path d="M3306 7815 c-86 -33 -160 -115 -172 -191 l-6 -45 -22 20 -22 21 -54
-55 -55 -55 268 -267 267 -268 54 54 55 54 -84 91 -84 91 50 16 c71 23 119 66
158 140 30 58 33 70 29 129 -11 151 -129 269 -278 276 -41 3 -79 -2 -104 -11z
m131 -156 c102 -49 129 -171 55 -242 -60 -57 -139 -54 -204 9 -67 67 -72 148
-10 207 52 50 95 57 159 26z"/>
<path d="M2863 7274 c-98 -36 -196 -167 -209 -280 -19 -157 120 -310 281 -308
84 0 153 33 214 100 121 132 121 327 0 428 -81 68 -198 93 -286 60z m109 -144
c95 -27 154 -130 117 -203 -50 -97 -157 -115 -239 -41 -21 20 -44 50 -50 69
-26 79 37 169 130 184 3 1 22 -4 42 -9z"/>
<path d="M7918 7089 c-175 -87 -318 -164 -318 -170 0 -6 39 -88 87 -182 69
-136 98 -182 142 -227 83 -84 134 -105 251 -105 83 0 102 4 150 27 165 81 241
241 197 415 -13 49 -180 405 -190 402 -1 0 -145 -72 -319 -160z m322 -151 c41
-83 50 -111 50 -155 0 -95 -61 -174 -159 -208 -63 -21 -99 -19 -158 10 -60 30
-86 61 -141 172 l-41 81 197 101 c108 55 198 100 200 101 1 0 25 -46 52 -102z"/>
<path d="M2276 6748 c-17 -40 -25 -73 -20 -78 15 -15 686 -290 694 -285 9 5
63 136 58 140 -3 3 -635 266 -683 285 -18 7 -24 0 -49 -62z"/>
<path d="M2520 6399 c-93 -18 -184 -103 -210 -197 -17 -61 -12 -165 9 -216 59
-136 242 -205 376 -142 145 67 220 270 158 429 -9 20 -18 37 -22 37 -3 0 -29
-14 -58 -30 l-52 -30 16 -37 c33 -79 -13 -197 -88 -227 -23 -9 -44 -15 -46
-12 -3 3 15 94 41 203 25 109 46 201 46 205 0 4 -21 10 -47 13 -27 4 -55 8
-63 10 -8 1 -35 -1 -60 -6z m17 -269 c-19 -79 -35 -130 -43 -130 -6 0 -26 16
-43 35 -37 42 -42 100 -13 154 20 36 72 71 108 71 21 0 21 -1 -9 -130z"/>
<path d="M8156 6334 c-134 -43 -201 -140 -199 -289 1 -90 33 -174 86 -232 22
-24 45 -43 51 -43 6 0 25 22 43 48 l32 47 -24 25 c-35 37 -55 92 -55 155 0 49
4 60 34 93 19 20 37 35 39 32 3 -3 24 -93 47 -200 23 -107 45 -198 49 -203 11
-12 112 23 158 54 111 77 140 245 65 382 -62 115 -201 171 -326 131z m192
-169 c64 -53 70 -156 13 -207 -17 -15 -35 -28 -39 -28 -5 0 -19 48 -31 108
-12 59 -25 117 -28 130 -4 19 -1 22 25 22 18 0 43 -10 60 -25z"/>
<path d="M2230 5744 l0 -79 180 -79 c99 -43 180 -82 180 -86 0 -3 -82 -38
-182 -77 l-183 -70 -3 -82 c-3 -76 -1 -82 15 -77 10 3 135 53 278 110 l260
104 3 84 c3 84 2 85 -25 97 -30 14 -489 219 -510 228 -10 4 -13 -14 -13 -73z"/>
<path d="M8290 5636 l-265 -112 0 -83 0 -82 269 -115 c148 -63 273 -114 277
-114 5 0 9 33 9 74 l0 74 -144 60 c-79 34 -162 69 -185 78 -23 9 -39 20 -34
25 4 4 87 39 183 77 l175 70 3 81 c2 61 0 81 -10 80 -7 0 -132 -51 -278 -113z"/>
<path d="M2453 5157 c-60 -22 -117 -72 -148 -128 -26 -48 -30 -63 -30 -134 1
-97 26 -159 88 -223 130 -133 363 -95 449 73 29 55 36 173 14 247 -17 61 -69
143 -102 165 -20 13 -24 11 -59 -37 l-37 -50 31 -32 c49 -50 67 -149 37 -206
-19 -37 -54 -68 -65 -56 -4 5 -23 86 -41 179 -17 94 -34 180 -37 193 -4 17
-12 22 -37 21 -17 0 -45 -6 -63 -12z m55 -260 c29 -152 29 -159 -5 -151 -42
10 -61 22 -78 48 -44 67 -37 146 16 190 17 14 34 26 38 26 4 0 17 -51 29 -113z"/>
<path d="M8160 5111 c-130 -42 -219 -178 -220 -332 0 -53 27 -138 46 -146 7
-2 34 8 59 23 39 22 45 30 40 48 -4 12 -9 44 -12 73 -9 88 54 183 123 183 20
0 20 -4 -23 -197 -23 -109 -43 -201 -43 -205 0 -3 25 -12 55 -18 103 -21 218
22 274 103 110 161 62 377 -101 447 -56 24 -156 35 -198 21z m193 -192 c82
-64 38 -219 -66 -236 l-35 -5 24 113 c36 170 33 164 77 128z"/>
<path d="M7854 4515 c-7 -19 -21 -51 -29 -72 -8 -20 -14 -37 -13 -38 11 -7
697 -275 705 -275 9 0 68 139 61 145 -7 5 -695 275 -702 275 -4 0 -14 -16 -22
-35z"/>
<path d="M2627 4529 c-110 -26 -220 -117 -256 -212 -25 -69 -28 -179 -6 -253
8 -27 50 -122 94 -211 l80 -163 103 49 c57 26 203 97 326 157 l222 109 -89
181 c-52 107 -104 198 -127 223 -96 107 -220 150 -347 120z m191 -180 c51 -25
90 -75 138 -178 19 -41 34 -75 34 -77 0 -3 -263 -132 -348 -170 l-53 -24 -46
96 c-40 83 -47 105 -47 158 0 36 7 73 16 91 56 105 201 154 306 104z"/>
<path d="M7807 4236 c-90 -33 -182 -134 -208 -229 -15 -56 -7 -153 16 -202 67
-138 240 -199 377 -132 148 73 225 268 162 408 -59 128 -220 200 -347 155z
m144 -166 c73 -38 102 -113 70 -184 -36 -83 -124 -109 -206 -63 -77 44 -104
119 -68 194 33 70 123 94 204 53z"/>
<path d="M7266 3891 l-57 -57 91 -88 c49 -47 90 -89 90 -91 0 -3 -11 -5 -25
-5 -36 0 -83 -25 -128 -69 -111 -105 -115 -264 -11 -380 84 -93 216 -130 316
-88 83 35 167 141 168 211 l0 29 23 -21 23 -22 52 53 c29 29 52 55 52 58 0 3
-121 122 -268 266 l-269 262 -57 -58z m237 -355 c42 -17 83 -66 98 -115 10
-33 8 -45 -9 -84 -59 -134 -238 -107 -283 42 -10 33 -8 45 9 84 34 77 107 106
185 73z"/>
<path d="M3295 3648 c-151 -54 -240 -226 -190 -369 31 -86 114 -160 196 -174
l39 -7 -91 -96 -91 -96 57 -55 58 -55 106 110 c58 60 178 185 265 277 l159
168 -39 40 c-54 56 -71 64 -94 44 -17 -15 -18 -14 -24 18 -8 45 -56 119 -98
150 -68 52 -178 71 -253 45z m158 -152 c54 -22 87 -70 87 -125 0 -129 -153
-210 -244 -131 -40 35 -61 88 -51 128 11 45 53 100 92 121 45 24 73 26 116 7z"/>
<path d="M6880 3271 c-84 -26 -187 -106 -221 -173 -30 -58 -26 -72 26 -86 62
-16 73 -15 80 8 29 90 164 147 247 104 l30 -16 -33 -22 c-19 -13 -97 -63 -174
-111 -77 -48 -142 -90 -145 -92 -10 -9 37 -78 79 -114 176 -155 476 -9 475
231 -1 158 -122 281 -273 279 -37 0 -77 -4 -91 -8z m218 -303 c3 -40 -1 -51
-28 -81 -52 -60 -132 -72 -189 -28 l-24 19 64 40 c35 23 84 54 109 71 25 16
50 28 55 27 6 -1 11 -23 13 -48z"/>
<path d="M3826 3241 c-3 -4 0 -33 6 -64 l12 -55 47 0 c101 -1 189 -79 189
-167 0 -19 -2 -35 -5 -35 -2 0 -84 47 -182 104 -122 72 -181 102 -189 95 -7
-5 -22 -33 -35 -62 -82 -184 49 -382 261 -395 91 -5 157 18 213 76 60 63 82
116 82 202 0 122 -61 212 -187 275 -60 30 -81 35 -139 35 -37 0 -70 -4 -73 -9z
m90 -338 l115 -68 -27 -22 c-15 -11 -39 -24 -54 -27 -68 -13 -153 43 -166 109
-5 31 1 75 12 75 3 0 57 -30 120 -67z"/>
<path d="M6423 3033 l-62 -24 18 -47 c10 -26 35 -87 55 -136 45 -112 48 -170
11 -215 -15 -16 -42 -36 -60 -43 -19 -6 -35 -15 -35 -19 0 -7 41 -120 46 -127
12 -18 105 52 135 102 l18 29 12 -26 c7 -15 16 -27 20 -27 13 0 113 41 123 50
13 13 -185 510 -204 509 -8 0 -43 -12 -77 -26z"/>
<path d="M4317 2647 c-102 -173 -188 -320 -189 -328 -2 -8 22 -18 70 -29 l73
-17 137 230 c83 140 138 223 140 211 1 -10 13 -128 26 -262 12 -133 25 -245
29 -248 3 -3 35 -12 72 -21 57 -13 69 -13 80 -2 7 8 70 111 141 229 120 200
129 213 132 180 2 -19 13 -138 25 -265 l22 -230 79 -18 c43 -10 81 -16 83 -13
7 7 -66 739 -75 747 -10 10 -163 42 -169 36 -2 -3 -63 -101 -134 -218 -70
-117 -130 -206 -133 -198 -2 8 -14 120 -26 249 -11 129 -24 238 -28 241 -4 3
-34 11 -67 18 -33 7 -69 15 -81 18 -19 4 -44 -35 -207 -310z"/>
<path d="M5788 2855 c-35 -20 -48 -44 -48 -93 0 -104 157 -126 190 -28 12 38
-2 89 -33 114 -24 20 -79 24 -109 7z"/>
</g>
</svg>
